<?xml version="1.0" encoding="iso-8859-1"?>
<!-- Generator: Adobe Illustrator 16.0.0, SVG Export Plug-In . SVG Version: 6.00 Build 0)  -->
<!DOCTYPE svg PUBLIC "-//W3C//DTD SVG 1.1//EN" "http://www.w3.org/Graphics/SVG/1.1/DTD/svg11.dtd">
<svg version="1.1" id="Capa_1" xmlns="http://www.w3.org/2000/svg" xmlns:xlink="http://www.w3.org/1999/xlink" x="0px" y="0px"
	 width="563.222px" height="563.222px" viewBox="0 0 563.222 563.222" style="enable-background:new 0 0 563.222 563.222;"
	 xml:space="preserve">
<g>
	<g id="Capa_1_12_">
		<g>
			<path d="M194.393,254.039c-9.028-4.248-16.437-11.227-21.812-16.88c-23.796-25.032-41.941-56.505-51.091-88.62
				c-1.065-3.739-1.979-7.471-2.798-11.197c-28.171-23.778-41.91-24.752-43.771-24.752c-0.032,0-0.062,0-0.088,0l-0.119,0.038
				c9.113,12.932,43.012,61.525,54.695,85.23C144.058,218.072,171.634,254.697,194.393,254.039z"/>
			<path d="M76.569,105.816c5.373,0.505,18.274,3.746,40.099,20.814c-1.578-10.018-2.263-19.939-2.046-29.681
				c0.338-15.287,2.873-30.125,7.609-44.184c-3.201-0.769-6.56-1.255-9.962-1.255c-16.318,0-33.577,11.049-38.643,54.304
				c0,0,0.424-0.083,1.293-0.083C75.356,105.732,75.906,105.754,76.569,105.816z"/>
			<path d="M251.441,46.227c0.04-2.337,0.013-4.668-0.103-6.99c-0.153-3.068,1.671-5.896,4.526-7.027
				c0.089-0.036,4.921-1.976,10.526-5.246c-8.492-29.157-38.171-11.194-38.171-11.194c-9.848-3.165-16.898,0.502-21.706,5.583
				c14.983,4.304,29.328,11.947,42.413,22.725C249.777,44.777,250.608,45.504,251.441,46.227z"/>
			<path d="M258.344,52.655c3.229,3.225,6.305,6.622,9.216,10.169c10.85,13.223,19.388,28.513,24.775,44.713
				c8.069,24.268,9.688,48.633,4.81,72.417c-3.368,16.42-9.243,29.733-15,39.74c28.175-26.833,29.991-101.574,28.366-114.601
				c-2.178-17.458-3.4-56.652-0.213-75.378c0.999-22.475-1.62-29.716-5.65-29.715c-5.617,0.001-13.977,14.057-19.118,20.552
				c-4.621,5.839-11.806,10.582-17.606,13.782c-5.283,2.914-9.421,4.546-9.421,4.546C258.73,43.464,258.655,48.06,258.344,52.655z"
				/>
			<path d="M125.215,133.65c0.41,1.98,0.855,3.957,1.333,5.926c0.497,2.05,1.031,4.094,1.601,6.128
				c9.049,32.358,27.003,62.709,49.63,86.512c7.358,7.74,16.837,15.915,27.719,17.986c1.038,0.197,2.083,0.36,3.145,0.44
				c0.796,0.06,1.591,0.088,2.381,0.088c3.618,0,7.174-0.593,10.714-1.383c0.359,1.152,0.743,2.404,1.147,3.734
				c0.304,1.001,0.617,2.046,0.943,3.145c10.144,34.255,30.229,114.913,19.632,189.101c0.95-1.596,1.903-3.181,2.862-4.743
				c4.565-7.444,8.851-15.181,12.963-23.038c1.474-28.725-0.398-61.642-5.638-98.561c-3.953-27.849-7.188-50.789-9.407-66.508
				c-0.176-1.242-0.347-2.45-0.509-3.6c-0.177-1.252-0.344-2.441-0.505-3.583c0.107-0.001,0.214-0.009,0.323-0.009
				c1.257,0,2.522,0.07,3.797,0.226c0.053,0.002,0.108,0.003,0.163,0.003c2.716,0,7.728-3.195,13.453-9.104
				c1.166-1.203,2.361-2.52,3.572-3.945c1.17-1.375,2.355-2.853,3.545-4.428c17.13-22.696,34.926-65.693,17.453-118.242
				c-4.406-13.25-11.016-25.854-19.348-37.118c-2.749-3.716-5.687-7.284-8.794-10.683c-1.046-1.144-2.112-2.266-3.196-3.371
				c-1.072-1.091-2.161-2.161-3.269-3.212c-13.941-13.214-30.69-23.104-49.004-27.853c-7.827-2.03-15.933-3.139-24.236-3.139
				c-6.709,0-13.538,0.708-20.444,2.204c-6.728,1.457-13.321,4.382-18.147,9.243c-0.423,0.427-0.834,0.869-1.229,1.326
				c-2.772,3.205-4.718,7.033-6.308,10.966c-0.093,0.23-0.19,0.46-0.281,0.691c-0.345,0.878-0.676,1.758-1.001,2.641
				c-0.415,1.126-0.818,2.254-1.202,3.386c-4.855,14.326-7.17,29.08-7.333,43.863C121.611,110.429,122.829,122.129,125.215,133.65z"
				/>
			<path d="M257.918,435.029c-1.786,3.129-3.603,6.238-5.483,9.306c-4.6,7.502-8.942,15.15-13.098,22.9
				c-6.632,12.368-12.781,24.999-18.688,37.727c-6.161,13.273-25.247,39.135-27.882,58.26h58.968
				c4.005-8.367,6.61-18.19,10.877-26.81c12.879-26.012,25.87-52.812,36.016-79.874c23.184-61.836,45.811-122.763,75.981-181.708
				c14.104-27.555,27.32-50.705,49.19-72.504c10.78-10.746,58.441-48.571,65.795-61.96c-5.204,1.3-41.943,31.621-46.616,34.642
				c-66.928,43.279-104.448,102.881-141.102,172.359C286.627,376.273,274.028,406.801,257.918,435.029z"/>
		</g>
	</g>
</g>
<g>
</g>
<g>
</g>
<g>
</g>
<g>
</g>
<g>
</g>
<g>
</g>
<g>
</g>
<g>
</g>
<g>
</g>
<g>
</g>
<g>
</g>
<g>
</g>
<g>
</g>
<g>
</g>
<g>
</g>
</svg>
